<mxfile host="app.diagrams.net" modified="2024-06-03T21:45:58.945Z" agent="Mozilla/5.0 (Macintosh; Intel Mac OS X 10_15_7) AppleWebKit/537.36 (KHTML, like Gecko) Chrome/125.0.0.0 Safari/537.36" etag="E1YrRahRPakKp4negdiY" version="24.2.8" type="github">
  <diagram name="PÃ¡gina-1" id="ESNvuoDSZ2ZdpHeWmjp-">
    <mxGraphModel dx="1590" dy="867" grid="1" gridSize="10" guides="1" tooltips="1" connect="1" arrows="1" fold="1" page="1" pageScale="1" pageWidth="827" pageHeight="1169" math="0" shadow="0">
      <root>
        <mxCell id="0" />
        <mxCell id="1" parent="0" />
        <mxCell id="E9aoK74jnZRDT1WEkhkU-133" value="SistemaDeteccion" style="swimlane;fontStyle=1;align=center;verticalAlign=top;childLayout=stackLayout;horizontal=1;startSize=27.9;horizontalStack=0;resizeParent=1;resizeParentMax=0;resizeLast=0;collapsible=0;marginBottom=0;" vertex="1" parent="1">
          <mxGeometry x="480" y="150" width="186" height="147.9" as="geometry" />
        </mxCell>
        <mxCell id="E9aoK74jnZRDT1WEkhkU-134" value="-Video: videoData" style="text;strokeColor=none;fillColor=none;align=left;verticalAlign=top;spacingLeft=4;spacingRight=4;overflow=hidden;rotatable=0;points=[[0,0.5],[1,0.5]];portConstraint=eastwest;" vertex="1" parent="E9aoK74jnZRDT1WEkhkU-133">
          <mxGeometry y="27.9" width="186" height="28" as="geometry" />
        </mxCell>
        <mxCell id="E9aoK74jnZRDT1WEkhkU-135" value="-Alertas: alertasData" style="text;strokeColor=none;fillColor=none;align=left;verticalAlign=top;spacingLeft=4;spacingRight=4;overflow=hidden;rotatable=0;points=[[0,0.5],[1,0.5]];portConstraint=eastwest;" vertex="1" parent="E9aoK74jnZRDT1WEkhkU-133">
          <mxGeometry y="55.9" width="186" height="28" as="geometry" />
        </mxCell>
        <mxCell id="E9aoK74jnZRDT1WEkhkU-136" style="line;strokeWidth=1;fillColor=none;align=left;verticalAlign=middle;spacingTop=-1;spacingLeft=3;spacingRight=3;rotatable=0;labelPosition=right;points=[];portConstraint=eastwest;strokeColor=inherit;" vertex="1" parent="E9aoK74jnZRDT1WEkhkU-133">
          <mxGeometry y="83.9" width="186" height="8" as="geometry" />
        </mxCell>
        <mxCell id="E9aoK74jnZRDT1WEkhkU-137" value="+procesarVideo(): void" style="text;strokeColor=none;fillColor=none;align=left;verticalAlign=top;spacingLeft=4;spacingRight=4;overflow=hidden;rotatable=0;points=[[0,0.5],[1,0.5]];portConstraint=eastwest;" vertex="1" parent="E9aoK74jnZRDT1WEkhkU-133">
          <mxGeometry y="91.9" width="186" height="28" as="geometry" />
        </mxCell>
        <mxCell id="E9aoK74jnZRDT1WEkhkU-138" value="+generarAlertas(): void" style="text;strokeColor=none;fillColor=none;align=left;verticalAlign=top;spacingLeft=4;spacingRight=4;overflow=hidden;rotatable=0;points=[[0,0.5],[1,0.5]];portConstraint=eastwest;" vertex="1" parent="E9aoK74jnZRDT1WEkhkU-133">
          <mxGeometry y="119.9" width="186" height="28" as="geometry" />
        </mxCell>
        <mxCell id="E9aoK74jnZRDT1WEkhkU-139" value="ModeloIA" style="swimlane;fontStyle=1;align=center;verticalAlign=top;childLayout=stackLayout;horizontal=1;startSize=29.25;horizontalStack=0;resizeParent=1;resizeParentMax=0;resizeLast=0;collapsible=0;marginBottom=0;" vertex="1" parent="1">
          <mxGeometry x="42" y="366" width="245" height="124.25" as="geometry" />
        </mxCell>
        <mxCell id="E9aoK74jnZRDT1WEkhkU-140" value="-ParametrosModelo: parametros" style="text;strokeColor=none;fillColor=none;align=left;verticalAlign=top;spacingLeft=4;spacingRight=4;overflow=hidden;rotatable=0;points=[[0,0.5],[1,0.5]];portConstraint=eastwest;" vertex="1" parent="E9aoK74jnZRDT1WEkhkU-139">
          <mxGeometry y="29.25" width="245" height="29" as="geometry" />
        </mxCell>
        <mxCell id="E9aoK74jnZRDT1WEkhkU-141" style="line;strokeWidth=1;fillColor=none;align=left;verticalAlign=middle;spacingTop=-1;spacingLeft=3;spacingRight=3;rotatable=0;labelPosition=right;points=[];portConstraint=eastwest;strokeColor=inherit;" vertex="1" parent="E9aoK74jnZRDT1WEkhkU-139">
          <mxGeometry y="58.25" width="245" height="8" as="geometry" />
        </mxCell>
        <mxCell id="E9aoK74jnZRDT1WEkhkU-142" value="+entrenarModelo(): void" style="text;strokeColor=none;fillColor=none;align=left;verticalAlign=top;spacingLeft=4;spacingRight=4;overflow=hidden;rotatable=0;points=[[0,0.5],[1,0.5]];portConstraint=eastwest;" vertex="1" parent="E9aoK74jnZRDT1WEkhkU-139">
          <mxGeometry y="66.25" width="245" height="29" as="geometry" />
        </mxCell>
        <mxCell id="E9aoK74jnZRDT1WEkhkU-143" value="+predecir(): void" style="text;strokeColor=none;fillColor=none;align=left;verticalAlign=top;spacingLeft=4;spacingRight=4;overflow=hidden;rotatable=0;points=[[0,0.5],[1,0.5]];portConstraint=eastwest;" vertex="1" parent="E9aoK74jnZRDT1WEkhkU-139">
          <mxGeometry y="95.25" width="245" height="29" as="geometry" />
        </mxCell>
        <mxCell id="E9aoK74jnZRDT1WEkhkU-144" value="Hardware" style="swimlane;fontStyle=1;align=center;verticalAlign=top;childLayout=stackLayout;horizontal=1;startSize=31.5;horizontalStack=0;resizeParent=1;resizeParentMax=0;resizeLast=0;collapsible=0;marginBottom=0;" vertex="1" parent="1">
          <mxGeometry x="337" y="377" width="182" height="103.5" as="geometry" />
        </mxCell>
        <mxCell id="E9aoK74jnZRDT1WEkhkU-145" value="-GPUs: list" style="text;strokeColor=none;fillColor=none;align=left;verticalAlign=top;spacingLeft=4;spacingRight=4;overflow=hidden;rotatable=0;points=[[0,0.5],[1,0.5]];portConstraint=eastwest;" vertex="1" parent="E9aoK74jnZRDT1WEkhkU-144">
          <mxGeometry y="31.5" width="182" height="32" as="geometry" />
        </mxCell>
        <mxCell id="E9aoK74jnZRDT1WEkhkU-146" style="line;strokeWidth=1;fillColor=none;align=left;verticalAlign=middle;spacingTop=-1;spacingLeft=3;spacingRight=3;rotatable=0;labelPosition=right;points=[];portConstraint=eastwest;strokeColor=inherit;" vertex="1" parent="E9aoK74jnZRDT1WEkhkU-144">
          <mxGeometry y="63.5" width="182" height="8" as="geometry" />
        </mxCell>
        <mxCell id="E9aoK74jnZRDT1WEkhkU-147" value="+procesarDatos(): void" style="text;strokeColor=none;fillColor=none;align=left;verticalAlign=top;spacingLeft=4;spacingRight=4;overflow=hidden;rotatable=0;points=[[0,0.5],[1,0.5]];portConstraint=eastwest;" vertex="1" parent="E9aoK74jnZRDT1WEkhkU-144">
          <mxGeometry y="71.5" width="182" height="32" as="geometry" />
        </mxCell>
        <mxCell id="E9aoK74jnZRDT1WEkhkU-148" value="Software" style="swimlane;fontStyle=1;align=center;verticalAlign=top;childLayout=stackLayout;horizontal=1;startSize=31.5;horizontalStack=0;resizeParent=1;resizeParentMax=0;resizeLast=0;collapsible=0;marginBottom=0;" vertex="1" parent="1">
          <mxGeometry x="610" y="377" width="178" height="103.5" as="geometry" />
        </mxCell>
        <mxCell id="E9aoK74jnZRDT1WEkhkU-149" value="-Frameworks: list" style="text;strokeColor=none;fillColor=none;align=left;verticalAlign=top;spacingLeft=4;spacingRight=4;overflow=hidden;rotatable=0;points=[[0,0.5],[1,0.5]];portConstraint=eastwest;" vertex="1" parent="E9aoK74jnZRDT1WEkhkU-148">
          <mxGeometry y="31.5" width="178" height="32" as="geometry" />
        </mxCell>
        <mxCell id="E9aoK74jnZRDT1WEkhkU-150" style="line;strokeWidth=1;fillColor=none;align=left;verticalAlign=middle;spacingTop=-1;spacingLeft=3;spacingRight=3;rotatable=0;labelPosition=right;points=[];portConstraint=eastwest;strokeColor=inherit;" vertex="1" parent="E9aoK74jnZRDT1WEkhkU-148">
          <mxGeometry y="63.5" width="178" height="8" as="geometry" />
        </mxCell>
        <mxCell id="E9aoK74jnZRDT1WEkhkU-151" value="+analizarVideo(): void" style="text;strokeColor=none;fillColor=none;align=left;verticalAlign=top;spacingLeft=4;spacingRight=4;overflow=hidden;rotatable=0;points=[[0,0.5],[1,0.5]];portConstraint=eastwest;" vertex="1" parent="E9aoK74jnZRDT1WEkhkU-148">
          <mxGeometry y="71.5" width="178" height="32" as="geometry" />
        </mxCell>
        <mxCell id="E9aoK74jnZRDT1WEkhkU-152" value="BaseDatos" style="swimlane;fontStyle=1;align=center;verticalAlign=top;childLayout=stackLayout;horizontal=1;startSize=29.25;horizontalStack=0;resizeParent=1;resizeParentMax=0;resizeLast=0;collapsible=0;marginBottom=0;" vertex="1" parent="1">
          <mxGeometry x="878" y="366" width="195" height="124.25" as="geometry" />
        </mxCell>
        <mxCell id="E9aoK74jnZRDT1WEkhkU-153" value="-datosVideo: list" style="text;strokeColor=none;fillColor=none;align=left;verticalAlign=top;spacingLeft=4;spacingRight=4;overflow=hidden;rotatable=0;points=[[0,0.5],[1,0.5]];portConstraint=eastwest;" vertex="1" parent="E9aoK74jnZRDT1WEkhkU-152">
          <mxGeometry y="29.25" width="195" height="29" as="geometry" />
        </mxCell>
        <mxCell id="E9aoK74jnZRDT1WEkhkU-154" style="line;strokeWidth=1;fillColor=none;align=left;verticalAlign=middle;spacingTop=-1;spacingLeft=3;spacingRight=3;rotatable=0;labelPosition=right;points=[];portConstraint=eastwest;strokeColor=inherit;" vertex="1" parent="E9aoK74jnZRDT1WEkhkU-152">
          <mxGeometry y="58.25" width="195" height="8" as="geometry" />
        </mxCell>
        <mxCell id="E9aoK74jnZRDT1WEkhkU-155" value="+almacenarDatos(): void" style="text;strokeColor=none;fillColor=none;align=left;verticalAlign=top;spacingLeft=4;spacingRight=4;overflow=hidden;rotatable=0;points=[[0,0.5],[1,0.5]];portConstraint=eastwest;" vertex="1" parent="E9aoK74jnZRDT1WEkhkU-152">
          <mxGeometry y="66.25" width="195" height="29" as="geometry" />
        </mxCell>
        <mxCell id="E9aoK74jnZRDT1WEkhkU-156" value="+recuperarDatos(): void" style="text;strokeColor=none;fillColor=none;align=left;verticalAlign=top;spacingLeft=4;spacingRight=4;overflow=hidden;rotatable=0;points=[[0,0.5],[1,0.5]];portConstraint=eastwest;" vertex="1" parent="E9aoK74jnZRDT1WEkhkU-152">
          <mxGeometry y="95.25" width="195" height="29" as="geometry" />
        </mxCell>
        <mxCell id="E9aoK74jnZRDT1WEkhkU-157" value="Seguridad" style="swimlane;fontStyle=1;align=center;verticalAlign=top;childLayout=stackLayout;horizontal=1;startSize=29.25;horizontalStack=0;resizeParent=1;resizeParentMax=0;resizeLast=0;collapsible=0;marginBottom=0;" vertex="1" parent="1">
          <mxGeometry x="1147" y="366" width="199" height="124.25" as="geometry" />
        </mxCell>
        <mxCell id="E9aoK74jnZRDT1WEkhkU-158" value="-medidasSeguridad: list" style="text;strokeColor=none;fillColor=none;align=left;verticalAlign=top;spacingLeft=4;spacingRight=4;overflow=hidden;rotatable=0;points=[[0,0.5],[1,0.5]];portConstraint=eastwest;" vertex="1" parent="E9aoK74jnZRDT1WEkhkU-157">
          <mxGeometry y="29.25" width="199" height="29" as="geometry" />
        </mxCell>
        <mxCell id="E9aoK74jnZRDT1WEkhkU-159" style="line;strokeWidth=1;fillColor=none;align=left;verticalAlign=middle;spacingTop=-1;spacingLeft=3;spacingRight=3;rotatable=0;labelPosition=right;points=[];portConstraint=eastwest;strokeColor=inherit;" vertex="1" parent="E9aoK74jnZRDT1WEkhkU-157">
          <mxGeometry y="58.25" width="199" height="8" as="geometry" />
        </mxCell>
        <mxCell id="E9aoK74jnZRDT1WEkhkU-160" value="+protegerDatos(): void" style="text;strokeColor=none;fillColor=none;align=left;verticalAlign=top;spacingLeft=4;spacingRight=4;overflow=hidden;rotatable=0;points=[[0,0.5],[1,0.5]];portConstraint=eastwest;" vertex="1" parent="E9aoK74jnZRDT1WEkhkU-157">
          <mxGeometry y="66.25" width="199" height="29" as="geometry" />
        </mxCell>
        <mxCell id="E9aoK74jnZRDT1WEkhkU-161" value="+anonimizarDatos(): void" style="text;strokeColor=none;fillColor=none;align=left;verticalAlign=top;spacingLeft=4;spacingRight=4;overflow=hidden;rotatable=0;points=[[0,0.5],[1,0.5]];portConstraint=eastwest;" vertex="1" parent="E9aoK74jnZRDT1WEkhkU-157">
          <mxGeometry y="95.25" width="199" height="29" as="geometry" />
        </mxCell>
        <mxCell id="E9aoK74jnZRDT1WEkhkU-162" value="IngenieroDatos" style="swimlane;fontStyle=1;align=center;verticalAlign=top;childLayout=stackLayout;horizontal=1;startSize=28.8;horizontalStack=0;resizeParent=1;resizeParentMax=0;resizeLast=0;collapsible=0;marginBottom=0;" vertex="1" parent="1">
          <mxGeometry x="81" y="20" width="186" height="65.8" as="geometry" />
        </mxCell>
        <mxCell id="E9aoK74jnZRDT1WEkhkU-163" style="line;strokeWidth=1;fillColor=none;align=left;verticalAlign=middle;spacingTop=-1;spacingLeft=3;spacingRight=3;rotatable=0;labelPosition=right;points=[];portConstraint=eastwest;strokeColor=inherit;" vertex="1" parent="E9aoK74jnZRDT1WEkhkU-162">
          <mxGeometry y="28.8" width="186" height="8" as="geometry" />
        </mxCell>
        <mxCell id="E9aoK74jnZRDT1WEkhkU-164" value="+gestionarDatos(): void" style="text;strokeColor=none;fillColor=none;align=left;verticalAlign=top;spacingLeft=4;spacingRight=4;overflow=hidden;rotatable=0;points=[[0,0.5],[1,0.5]];portConstraint=eastwest;" vertex="1" parent="E9aoK74jnZRDT1WEkhkU-162">
          <mxGeometry y="36.8" width="186" height="29" as="geometry" />
        </mxCell>
        <mxCell id="E9aoK74jnZRDT1WEkhkU-165" value="CientificoDatos" style="swimlane;fontStyle=1;align=center;verticalAlign=top;childLayout=stackLayout;horizontal=1;startSize=28.8;horizontalStack=0;resizeParent=1;resizeParentMax=0;resizeLast=0;collapsible=0;marginBottom=0;" vertex="1" parent="1">
          <mxGeometry x="20" y="184" width="216" height="65.8" as="geometry" />
        </mxCell>
        <mxCell id="E9aoK74jnZRDT1WEkhkU-166" style="line;strokeWidth=1;fillColor=none;align=left;verticalAlign=middle;spacingTop=-1;spacingLeft=3;spacingRight=3;rotatable=0;labelPosition=right;points=[];portConstraint=eastwest;strokeColor=inherit;" vertex="1" parent="E9aoK74jnZRDT1WEkhkU-165">
          <mxGeometry y="28.8" width="216" height="8" as="geometry" />
        </mxCell>
        <mxCell id="E9aoK74jnZRDT1WEkhkU-167" value="+desarrollarModelos(): void" style="text;strokeColor=none;fillColor=none;align=left;verticalAlign=top;spacingLeft=4;spacingRight=4;overflow=hidden;rotatable=0;points=[[0,0.5],[1,0.5]];portConstraint=eastwest;" vertex="1" parent="E9aoK74jnZRDT1WEkhkU-165">
          <mxGeometry y="36.8" width="216" height="29" as="geometry" />
        </mxCell>
        <mxCell id="E9aoK74jnZRDT1WEkhkU-168" value="ArquitectoSistemas" style="swimlane;fontStyle=1;align=center;verticalAlign=top;childLayout=stackLayout;horizontal=1;startSize=28.8;horizontalStack=0;resizeParent=1;resizeParentMax=0;resizeLast=0;collapsible=0;marginBottom=0;" vertex="1" parent="1">
          <mxGeometry x="716" y="184" width="240" height="65.8" as="geometry" />
        </mxCell>
        <mxCell id="E9aoK74jnZRDT1WEkhkU-169" style="line;strokeWidth=1;fillColor=none;align=left;verticalAlign=middle;spacingTop=-1;spacingLeft=3;spacingRight=3;rotatable=0;labelPosition=right;points=[];portConstraint=eastwest;strokeColor=inherit;" vertex="1" parent="E9aoK74jnZRDT1WEkhkU-168">
          <mxGeometry y="28.8" width="240" height="8" as="geometry" />
        </mxCell>
        <mxCell id="E9aoK74jnZRDT1WEkhkU-170" value="+diseÃ±arInfraestructura(): void" style="text;strokeColor=none;fillColor=none;align=left;verticalAlign=top;spacingLeft=4;spacingRight=4;overflow=hidden;rotatable=0;points=[[0,0.5],[1,0.5]];portConstraint=eastwest;" vertex="1" parent="E9aoK74jnZRDT1WEkhkU-168">
          <mxGeometry y="36.8" width="240" height="29" as="geometry" />
        </mxCell>
        <mxCell id="E9aoK74jnZRDT1WEkhkU-171" value="AnalistaSeguridad" style="swimlane;fontStyle=1;align=center;verticalAlign=top;childLayout=stackLayout;horizontal=1;startSize=28.8;horizontalStack=0;resizeParent=1;resizeParentMax=0;resizeLast=0;collapsible=0;marginBottom=0;" vertex="1" parent="1">
          <mxGeometry x="1154" y="184" width="186" height="65.8" as="geometry" />
        </mxCell>
        <mxCell id="E9aoK74jnZRDT1WEkhkU-172" style="line;strokeWidth=1;fillColor=none;align=left;verticalAlign=middle;spacingTop=-1;spacingLeft=3;spacingRight=3;rotatable=0;labelPosition=right;points=[];portConstraint=eastwest;strokeColor=inherit;" vertex="1" parent="E9aoK74jnZRDT1WEkhkU-171">
          <mxGeometry y="28.8" width="186" height="8" as="geometry" />
        </mxCell>
        <mxCell id="E9aoK74jnZRDT1WEkhkU-173" value="+evaluarRiesgos(): void" style="text;strokeColor=none;fillColor=none;align=left;verticalAlign=top;spacingLeft=4;spacingRight=4;overflow=hidden;rotatable=0;points=[[0,0.5],[1,0.5]];portConstraint=eastwest;" vertex="1" parent="E9aoK74jnZRDT1WEkhkU-171">
          <mxGeometry y="36.8" width="186" height="29" as="geometry" />
        </mxCell>
        <mxCell id="E9aoK74jnZRDT1WEkhkU-174" value="Investigador" style="swimlane;fontStyle=1;align=center;verticalAlign=top;childLayout=stackLayout;horizontal=1;startSize=28.8;horizontalStack=0;resizeParent=1;resizeParentMax=0;resizeLast=0;collapsible=0;marginBottom=0;" vertex="1" parent="1">
          <mxGeometry x="513" y="20" width="195" height="65.8" as="geometry" />
        </mxCell>
        <mxCell id="E9aoK74jnZRDT1WEkhkU-175" style="line;strokeWidth=1;fillColor=none;align=left;verticalAlign=middle;spacingTop=-1;spacingLeft=3;spacingRight=3;rotatable=0;labelPosition=right;points=[];portConstraint=eastwest;strokeColor=inherit;" vertex="1" parent="E9aoK74jnZRDT1WEkhkU-174">
          <mxGeometry y="28.8" width="195" height="8" as="geometry" />
        </mxCell>
        <mxCell id="E9aoK74jnZRDT1WEkhkU-176" value="+mejorarModelos(): void" style="text;strokeColor=none;fillColor=none;align=left;verticalAlign=top;spacingLeft=4;spacingRight=4;overflow=hidden;rotatable=0;points=[[0,0.5],[1,0.5]];portConstraint=eastwest;" vertex="1" parent="E9aoK74jnZRDT1WEkhkU-174">
          <mxGeometry y="36.8" width="195" height="29" as="geometry" />
        </mxCell>
        <mxCell id="E9aoK74jnZRDT1WEkhkU-177" value="utiliza" style="curved=1;startArrow=none;endArrow=open;endSize=12;exitX=-0.002415154569892473;exitY=0.6337254548657362;entryX=0.25418699820044294;entryY=0;rounded=0;" edge="1" parent="1" source="E9aoK74jnZRDT1WEkhkU-133" target="E9aoK74jnZRDT1WEkhkU-139">
          <mxGeometry relative="1" as="geometry">
            <Array as="points">
              <mxPoint x="71" y="332" />
            </Array>
          </mxGeometry>
        </mxCell>
        <mxCell id="E9aoK74jnZRDT1WEkhkU-178" value="requiere" style="curved=1;startArrow=none;endArrow=open;endSize=12;exitX=-0.002415154569892473;exitY=0.7679910739388892;entryX=0.18675284663656758;entryY=0.0024271844660194173;rounded=0;" edge="1" parent="1" source="E9aoK74jnZRDT1WEkhkU-133" target="E9aoK74jnZRDT1WEkhkU-144">
          <mxGeometry relative="1" as="geometry">
            <Array as="points">
              <mxPoint x="321" y="332" />
            </Array>
          </mxGeometry>
        </mxCell>
        <mxCell id="E9aoK74jnZRDT1WEkhkU-179" value="requiere" style="curved=1;startArrow=none;endArrow=open;endSize=12;exitX=0.47848543556787637;exitY=0.9966216216216216;entryX=0.10815882626731094;entryY=0.0024271844660194173;rounded=0;" edge="1" parent="1" source="E9aoK74jnZRDT1WEkhkU-133" target="E9aoK74jnZRDT1WEkhkU-148">
          <mxGeometry relative="1" as="geometry">
            <Array as="points">
              <mxPoint x="567" y="332" />
            </Array>
          </mxGeometry>
        </mxCell>
        <mxCell id="E9aoK74jnZRDT1WEkhkU-180" value="almacena" style="curved=1;startArrow=none;endArrow=open;endSize=12;exitX=0.9973328293010753;exitY=0.6665305743701321;entryX=0.5018229166666667;entryY=0;rounded=0;" edge="1" parent="1" source="E9aoK74jnZRDT1WEkhkU-133" target="E9aoK74jnZRDT1WEkhkU-152">
          <mxGeometry relative="1" as="geometry">
            <Array as="points">
              <mxPoint x="976" y="332" />
            </Array>
          </mxGeometry>
        </mxCell>
        <mxCell id="E9aoK74jnZRDT1WEkhkU-181" value="asegura" style="curved=1;startArrow=none;endArrow=open;endSize=12;exitX=0.9973328293010753;exitY=0.6178021840205897;entryX=0.15580519380656466;entryY=0;rounded=0;" edge="1" parent="1" source="E9aoK74jnZRDT1WEkhkU-133" target="E9aoK74jnZRDT1WEkhkU-157">
          <mxGeometry relative="1" as="geometry">
            <Array as="points">
              <mxPoint x="1140" y="332" />
            </Array>
          </mxGeometry>
        </mxCell>
        <mxCell id="E9aoK74jnZRDT1WEkhkU-182" value="" style="curved=1;startArrow=none;endArrow=open;endSize=12;exitX=1.0012915826612903;exitY=0.9104634347885966;entryX=-0.002415154569892473;entryY=0.20850420447820092;rounded=0;" edge="1" parent="1" source="E9aoK74jnZRDT1WEkhkU-162" target="E9aoK74jnZRDT1WEkhkU-133">
          <mxGeometry relative="1" as="geometry">
            <Array as="points">
              <mxPoint x="358" y="125" />
            </Array>
          </mxGeometry>
        </mxCell>
        <mxCell id="E9aoK74jnZRDT1WEkhkU-183" value="" style="curved=1;startArrow=none;endArrow=open;endSize=12;exitX=0.4988968460648148;exitY=0.996875;entryX=0.4025587863536888;entryY=0;rounded=0;" edge="1" parent="1" source="E9aoK74jnZRDT1WEkhkU-165" target="E9aoK74jnZRDT1WEkhkU-139">
          <mxGeometry relative="1" as="geometry">
            <Array as="points">
              <mxPoint x="128" y="332" />
            </Array>
          </mxGeometry>
        </mxCell>
        <mxCell id="E9aoK74jnZRDT1WEkhkU-184" value="" style="curved=1;startArrow=none;endArrow=open;endSize=12;exitX=0.006949266975308887;exitY=0.996875;entryX=0.757215975239231;entryY=0.0024271844660194173;rounded=0;" edge="1" parent="1" source="E9aoK74jnZRDT1WEkhkU-168" target="E9aoK74jnZRDT1WEkhkU-144">
          <mxGeometry relative="1" as="geometry">
            <Array as="points">
              <mxPoint x="517" y="332" />
            </Array>
          </mxGeometry>
        </mxCell>
        <mxCell id="E9aoK74jnZRDT1WEkhkU-185" value="" style="curved=1;startArrow=none;endArrow=open;endSize=12;exitX=0.49095052083333335;exitY=0.996875;entryX=0.8914681049124643;entryY=0.0024271844660194173;rounded=0;" edge="1" parent="1" source="E9aoK74jnZRDT1WEkhkU-168" target="E9aoK74jnZRDT1WEkhkU-148">
          <mxGeometry relative="1" as="geometry">
            <Array as="points">
              <mxPoint x="831" y="332" />
            </Array>
          </mxGeometry>
        </mxCell>
        <mxCell id="E9aoK74jnZRDT1WEkhkU-186" value="" style="curved=1;startArrow=none;endArrow=open;endSize=12;exitX=0.4986664146505376;exitY=0.996875;entryX=0.5012660961055276;entryY=0;rounded=0;" edge="1" parent="1" source="E9aoK74jnZRDT1WEkhkU-171" target="E9aoK74jnZRDT1WEkhkU-157">
          <mxGeometry relative="1" as="geometry">
            <Array as="points" />
          </mxGeometry>
        </mxCell>
        <mxCell id="E9aoK74jnZRDT1WEkhkU-187" value="" style="curved=1;startArrow=none;endArrow=open;endSize=12;exitX=0.5466954820019725;exitY=1;entryX=0.7099138838556555;entryY=0;rounded=0;" edge="1" parent="1" source="E9aoK74jnZRDT1WEkhkU-174" target="E9aoK74jnZRDT1WEkhkU-133">
          <mxGeometry relative="1" as="geometry">
            <Array as="points">
              <mxPoint x="625" y="125" />
            </Array>
          </mxGeometry>
        </mxCell>
        <mxCell id="E9aoK74jnZRDT1WEkhkU-188" value="" style="curved=1;startArrow=none;endArrow=open;endSize=12;exitX=-0.0017327724358974358;exitY=0.7334306787543617;entryX=0.7789805517652797;entryY=0;rounded=0;" edge="1" parent="1" source="E9aoK74jnZRDT1WEkhkU-174" target="E9aoK74jnZRDT1WEkhkU-139">
          <mxGeometry relative="1" as="geometry">
            <Array as="points">
              <mxPoint x="271" y="125" />
              <mxPoint x="271" y="332" />
            </Array>
          </mxGeometry>
        </mxCell>
      </root>
    </mxGraphModel>
  </diagram>
</mxfile>
